HIERARCHY
ROOT Hips
{
  OFFSET 0 0 0
  CHANNELS 6 Xposition Yposition Zposition Zrotation Yrotation Xrotation
  JOINT LeftThigh
  {
    OFFSET 8.409438 0 -5.917753
    CHANNELS 3 Zrotation Yrotation Xrotation
    JOINT LeftLeg
    {
      OFFSET 0 0 -42.358652
      CHANNELS 3 Zrotation Yrotation Xrotation
      JOINT LeftFoot
      {
        OFFSET 0 0 -39.357303
        CHANNELS 3 Zrotation Yrotation Xrotation
      }
    }
  }
  JOINT RightThigh
  {
    OFFSET -8.409438 0 -5.917753
    CHANNELS 3 Zrotation Yrotation Xrotation
    JOINT RightLeg
    {
      OFFSET 0 0 -42.358652
      CHANNELS 3 Zrotation Yrotation Xrotation
      JOINT RightFoot
      {
        OFFSET 0 0 -39.357303
        CHANNELS 3 Zrotation Yrotation Xrotation
      }
    }
  }
  JOINT SpineLow
  {
    OFFSET 0 0 4.719101
    CHANNELS 3 Zrotation Yrotation Xrotation
    JOINT SpineMid
    {
      OFFSET 0 0 12.899191
      CHANNELS 3 Zrotation Yrotation Xrotation
      JOINT Chest
      {
        OFFSET 0 0 12.899191
        CHANNELS 3 Zrotation Yrotation Xrotation
        JOINT LeftShoulder
        {
          OFFSET 7.550562 1.41573 9.438202
          CHANNELS 3 Zrotation Yrotation Xrotation
          JOINT LeftArm
          {
            OFFSET 9.155056 0 4.247191
            CHANNELS 3 Zrotation Yrotation Xrotation
            JOINT LeftForearm
            {
              OFFSET 0 0 25.771955
              CHANNELS 3 Zrotation Yrotation Xrotation
              JOINT LeftHand
              {
                OFFSET 0 0 25.197169
                CHANNELS 3 Zrotation Yrotation Xrotation
              }
            }
          }
        }
        JOINT RightShoulder
        {
          OFFSET -7.550562 1.41573 9.438202
          CHANNELS 3 Zrotation Yrotation Xrotation
          JOINT RightArm
          {
            OFFSET -9.155056 0 4.247191
            CHANNELS 3 Zrotation Yrotation Xrotation
            JOINT RightForearm
            {
              OFFSET 0 0 -25.771955
              CHANNELS 3 Zrotation Yrotation Xrotation
              JOINT RightHand
              {
                OFFSET 0 0 -25.197169
                CHANNELS 3 Zrotation Yrotation Xrotation
              }
            }
          }
        }
        JOINT Neck
        {
          OFFSET 0 0 15.101124
          CHANNELS 3 Zrotation Yrotation Xrotation
          JOINT Head
          {
            OFFSET 0 0 11.325843
            CHANNELS 3 Zrotation Yrotation Xrotation
            End Site
            {
              OFFSET 0 0 14.157303
            }
          }
        }
      }
    }
  }
}
MOTION
Frames: 14
Frame Time: 0.0
0.0  89.887642  0.0  12.109783  -63.619657  -115.288689  46.400435  -48.847648  -25.999044  10.448364  29.172515  64.179202  -0.612767  1.409444  1.679279  -15.22488  5.787833  -42.744571  36.261966  1.910541  76.557544  13.868979  12.330223  -3.270438  2.868055  1.801514  1.235965  7.942144  4.768091  3.59244  7.942144  4.768091  3.59244  -14.277532  19.284362  15.051897  -81.559952  42.065892  -70.510291  -42.625821  9.215359  75.252952  60.396399  15.085519  7.131212  5.770617  2.583241  19.254178  101.687687  47.309161  17.44697  -0.495424  -0.071483  -89.829639  80.21685  -16.689919  15.263744  6.668066  -6.352533  9.394525  5.095338  -4.663981  7.109196  
0.0  89.887642  0.0  12.357028  -63.192979  -115.823798  47.105892  -48.695447  -26.023445  9.981348  29.142138  63.728565  -0.635382  1.378324  1.692818  -15.148882  6.272217  -42.268048  36.032669  1.868298  76.485221  13.613321  12.445848  -3.349235  2.825452  1.840112  1.247918  7.828959  4.874364  3.626899  7.828959  4.874364  3.626899  -14.365617  19.162184  15.711343  -82.444481  42.203432  -71.982796  -42.686126  9.456636  75.880166  60.685006  15.792035  6.470278  5.949124  2.60949  19.19188  101.16375  46.503498  17.488832  -2.288838  1.392161  -90.248293  80.450882  -18.505353  15.357851  6.978358  -6.531452  9.714285  5.333891  -4.789975  7.353774  
0.0  89.887642  0.0  12.72074  -62.796205  -116.488081  47.855995  -48.50986  -26.014869  9.427973  29.023967  63.334228  -0.757128  1.344036  1.676044  -15.172389  6.883127  -41.681026  35.927375  1.951013  76.146672  13.286492  12.156732  -3.373122  2.78021  1.850256  1.254638  7.706297  4.903832  3.643242  7.706297  4.903832  3.643242  -14.451531  19.265427  16.424519  -83.228618  42.288932  -73.511606  -42.656526  9.716112  76.780844  60.977546  16.544531  5.855735  6.130085  2.949943  19.466718  100.169949  45.91537  16.829229  -4.424998  3.567522  -90.681875  81.152937  -20.695346  14.615035  7.348926  -6.580177  10.059655  5.616146  -4.816685  7.61713  
0.0  89.887642  0.0  12.752635  -62.245755  -116.797237  48.394194  -48.334449  -26.151626  8.870683  28.933492  62.991547  -0.86434  1.299786  1.674129  -15.238934  7.480245  -41.116933  35.685258  2.150566  75.81729  13.377376  12.123489  -3.375829  2.705391  1.821155  1.253842  7.499536  4.828815  3.632154  7.499537  4.828816  3.632155  -14.673931  19.571799  17.145563  -83.861142  42.291407  -74.892327  -42.572377  9.959796  77.804998  61.228266  17.435181  5.128165  6.323781  3.355677  19.831055  98.655359  45.574319  16.166951  -6.608842  5.608084  -91.745759  82.658352  -22.960547  13.245066  7.611216  -6.506471  10.415829  5.815564  -4.752795  7.886208  
0.0  89.887642  0.0  12.718659  -61.658348  -117.045971  48.652305  -48.202884  -26.282484  8.428029  28.853733  62.800628  -0.95637  1.278067  1.64938  -15.420329  8.178339  -40.48623  35.335956  2.263542  75.337775  13.419027  12.18755  -3.362198  2.614986  1.749572  1.218645  7.245021  4.642544  3.521209  7.245021  4.642544  3.521209  -14.849358  20.136729  18.009389  -84.338316  42.141863  -76.233278  -42.293565  10.391585  78.953404  61.509906  18.270167  4.276026  6.242608  3.670797  20.399864  95.096625  45.120863  14.234049  -7.449102  7.849464  -93.365403  84.797808  -24.708076  10.996188  7.74196  -6.264959  10.894161  5.914959  -4.563441  8.243633  
0.0  89.887642  0.0  12.511282  -61.03053  -117.075947  48.86278  -48.166972  -26.467967  7.99015  28.967728  62.586399  -0.988429  1.26553  1.613698  -15.367242  8.906944  -39.912341  34.840383  2.29201  74.968986  13.267067  12.205088  -3.362721  2.524572  1.621096  1.1137  6.982869  4.308113  3.213882  6.982868  4.308113  3.213882  -14.932075  20.96729  19.115766  -84.720562  41.951766  -77.578715  -41.83626  11.050396  80.276829  61.936257  19.159854  3.277023  6.510672  4.358565  21.43373  91.668319  44.667579  12.129892  -9.088902  9.660068  -95.171318  86.986673  -25.990274  8.025159  7.639216  -5.883215  11.712129  5.840002  -4.268784  8.851727  
0.0  89.887642  0.0  12.216544  -60.367317  -116.948061  48.984414  -48.171311  -26.776054  7.652308  29.224419  62.455481  -0.955108  1.272963  1.586731  -15.151059  9.697343  -38.852347  34.058683  2.629173  74.246397  13.160519  12.248233  -3.379772  2.438891  1.480955  0.985682  6.732998  3.94307  2.843622  6.732998  3.94307  2.843622  -14.985005  21.765966  20.120066  -85.013162  41.691265  -78.916052  -41.011395  11.722366  81.858765  62.534418  20.207769  2.257042  6.50253  5.154768  22.613335  87.953265  44.299362  9.479144  -10.644539  11.157437  -97.308683  90.310996  -27.055212  4.074386  7.424706  -5.409134  12.553616  5.678628  -3.907073  9.475707  
0.0  89.887642  0.0  11.83769  -59.608151  -116.703086  49.021473  -48.231551  -27.193819  7.518968  29.541703  62.513867  -0.944048  1.259678  1.570129  -15.309505  10.299822  -38.438288  33.704963  2.633681  73.876507  13.036018  12.269486  -3.369009  2.385735  1.45063  0.976119  6.585488  3.863621  2.81124  6.585488  3.86362  2.81124  -15.384419  21.587463  20.354915  -85.289113  41.344447  -80.088176  -39.732564  12.067109  83.716118  63.434831  21.563333  1.314005  6.474591  5.628539  22.902659  83.224432  43.950906  5.817239  -11.86986  12.091829  -99.716337  94.402132  -27.800168  -0.223819  7.147728  -5.159137  12.819182  5.468499  -3.722051  9.669888  
0.0  89.887642  0.0  11.58605  -58.831959  -116.500985  49.113625  -48.20073  -27.67442  7.47805  29.867023  62.657305  -0.958585  1.236416  1.571492  -15.546962  10.836555  -38.017257  33.492746  2.743893  73.389229  12.767416  12.018765  -3.285849  2.307732  1.464499  1.052413  6.377204  3.897508  3.01668  6.377205  3.897508  3.01668  -15.690399  21.030512  19.964529  -85.235625  40.896889  -80.823323  -38.140861  11.852274  85.732703  64.585799  23.19319  0.798207  6.493987  6.017252  22.4081  78.159744  43.666324  1.673832  -12.664565  12.524246  -102.301845  99.705931  -28.74199  -4.140108  6.993777  -4.930141  12.677188  5.347314  -3.554966  9.560004  
0.0  89.887642  0.0  11.097915  -57.896267  -116.062783  49.175832  -48.073397  -28.272433  7.391598  30.129009  62.818989  -1.008403  1.209531  1.562481  -16.34483  11.179518  -37.731858  33.57697  2.904961  72.862936  12.742393  11.99455  -3.240665  2.161117  1.443326  1.126915  5.979256  3.839809  3.209845  5.979256  3.839809  3.209845  -15.713542  20.624889  19.477057  -84.575238  40.311544  -81.044766  -36.355144  11.315742  87.89543  65.979255  25.249637  0.801733  7.062807  6.702165  21.877935  72.490607  43.656096  -3.108861  -13.408699  12.719021  -105.064206  104.338086  -30.216923  -7.146671  6.975031  -4.587131  12.585211  5.325797  -3.298934  9.487742  
0.0  89.887642  0.0  10.513453  -56.786519  -115.416795  49.170795  -47.696891  -28.955328  7.144407  30.33915  62.858572  -1.091081  1.186932  1.564431  -17.48093  11.500444  -37.594119  33.768069  3.027753  72.262416  12.698513  11.910289  -3.211083  1.974023  1.432777  1.205977  5.471372  3.813725  3.414401  5.471372  3.813725  3.414401  -15.522929  20.128373  18.843554  -83.457149  39.638436  -80.687751  -34.379231  10.474053  90.20398  67.564465  27.583793  1.172779  7.760585  7.405852  21.13933  66.733738  43.975092  -8.190857  -14.091361  12.44622  -107.823458  108.211577  -31.890838  -9.445983  6.921616  -4.267538  12.431235  5.27835  -3.06187  9.368917  
0.0  89.887642  0.0  9.689729  -55.524246  -114.578952  48.90496  -47.265576  -29.66295  6.964191  30.409724  63.009726  -1.318561  1.133767  1.51608  -18.771184  11.830447  -37.481666  33.831562  3.191803  71.665878  12.667608  11.878761  -3.216272  1.80776  1.439151  1.315173  5.023177  3.831527  3.704056  5.023177  3.831526  3.704056  -15.762042  19.34081  17.98139  -81.764282  39.188408  -79.759873  -32.555386  9.283052  92.535402  69.379112  29.889665  1.762524  8.2288  7.960147  20.049869  60.86563  44.486289  -13.633276  -14.382287  11.451705  -110.243807  111.568706  -33.224357  -10.810715  6.650843  -4.086037  12.226024  5.07029  -2.933314  9.211427  
0.0  89.887642  0.0  8.667159  -53.986879  -113.419014  48.274341  -46.723011  -30.514365  6.838368  30.495658  63.208073  -1.60799  1.092308  1.400648  -20.26467  12.233409  -37.442161  33.767087  3.297824  70.92429  12.552036  11.717172  -3.190098  1.65179  1.461762  1.395507  4.602617  3.896511  3.916531  4.602617  3.896511  3.916531  -16.292838  18.262789  17.178665  -79.857728  39.148524  -78.183614  -31.072839  7.453166  94.797468  71.394705  32.078466  2.615015  8.436032  8.354389  18.806849  54.832794  45.143965  -19.430887  -14.267202  9.820883  -112.243229  114.352687  -34.321014  -11.282183  6.047024  -4.065767  12.033743  4.615666  -2.931977  9.062831  
0.0  89.887642  0.0  7.60302  -52.325407  -112.229519  47.40963  -46.188542  -31.509623  6.875014  30.56864  63.655821  -1.830598  1.065301  1.267489  -21.686448  12.741336  -37.347316  33.415204  3.438762  70.119544  12.538275  11.639254  -3.155684  1.535851  1.486945  1.486837  4.29252  3.966253  4.161354  4.29252  3.966253  4.161354  -17.093853  16.857952  16.309732  -78.256084  40.029496  -75.770015  -30.364396  4.462494  96.670896  73.491483  33.881429  3.529683  8.331508  8.649372  17.299571  48.654076  45.899932  -25.505641  -14.182894  8.003081  -113.775012  116.119579  -35.284053  -10.89763  5.237426  -4.108723  11.837  4.007875  -2.981717  8.909959  
